<?xml version="1.0" encoding="UTF-8"?>
<svg id="Layer_2" data-name="Layer 2" xmlns="http://www.w3.org/2000/svg" viewBox="0 0 679.89 679.89">
  <defs>
    <style>
      .cls-1 {
        fill: #7a3514;
      }
    </style>
  </defs>
  <g id="Layer_1-2" data-name="Layer 1">
    <path class="cls-1" d="M679.89,479.62c0-.58,0-1.18-.04-1.76-.93-19.8-17.39-35.31-37.46-35.31h-20.1c5.12-6.36,8.18-14.43,8.18-23.2,0-.59-.02-1.18-.04-1.77-.94-19.79-17.38-35.29-37.44-35.29h-16.31v-15.84c0-13.01,6.45-25.11,17.26-32.36,16.21-10.89,28.11-27.23,33.5-46l2.46-8.57c4.67-16.27,7.05-33.09,7.08-50.01l.22-121.85c0-20.1-15.5-36.55-35.29-37.48-.59-.03-1.18-.05-1.77-.05-8.77,0-16.84,3.07-23.2,8.18v-11.11c0-20.44-16.63-37.07-37.07-37.07-.58,0-1.18.02-1.76.05-8.13.38-15.53,3.38-21.44,8.17v-1.28c0-20.44-16.62-37.07-37.06-37.07-.58,0-1.17.02-1.75.05-19.81.93-35.32,17.38-35.32,37.45v20.1c-6.35-5.11-14.42-8.18-23.2-8.18-.58,0-1.17.02-1.76.05-12.76.6-23.74,7.65-29.93,17.96h-46.18c-5.93,0-10.79,4.69-11,10.61-.03.94-.07,1.88-.11,2.82-10.72-13.61-25.53-23.6-42.28-28.41l-8.57-2.46c-16.26-4.67-33.09-7.05-50-7.08l-121.85-.22c-20.11,0-36.56,15.5-37.49,35.29-.03.59-.04,1.18-.04,1.77,0,8.77,3.06,16.84,8.18,23.2h-11.11c-20.44,0-37.07,16.63-37.07,37.07,0,.58,0,1.18.04,1.76.38,8.13,3.38,15.54,8.17,21.44h-1.27c-20.44,0-37.07,16.62-37.07,37.06,0,.58.01,1.17.04,1.76.93,19.8,17.38,35.31,37.46,35.31h20.09c-5.11,6.35-8.17,14.43-8.17,23.2,0,.58,0,1.18.04,1.76.94,19.8,17.38,35.3,37.44,35.3h16.3v15.83c0,13.02-6.45,25.12-17.25,32.37-16.22,10.89-28.11,27.22-33.5,46l-2.47,8.57c-4.66,16.26-7.05,33.09-7.08,50.01l-.22,121.85c0,20.1,15.51,36.55,35.3,37.48.59.03,1.18.04,1.76.04,8.78,0,16.85-3.06,23.2-8.17v11.1c0,20.44,16.63,37.07,37.07,37.07.59,0,1.18-.01,1.77-.04,8.13-.38,15.53-3.38,21.43-8.17v1.27c0,20.44,16.63,37.07,37.06,37.07.59,0,1.18-.01,1.76-.04,19.8-.93,35.31-17.38,35.31-37.45v-20.1c6.36,5.11,14.43,8.17,23.2,8.17.59,0,1.18-.01,1.77-.04,17.35-.82,31.4-13.56,34.61-30.21,4.43,12.5,15.6,20.63,29.12,20.93.25.01.51.01.77.01,11.94,0,22.25-6.21,27.7-16.36,10.13,10.68,23.01,18.55,37.29,22.65l8.58,2.46c16.26,4.67,33.08,7.05,50,7.08l121.85.22c20.11,0,36.55-15.5,37.49-35.29.02-.59.04-1.19.04-1.77,0-8.77-3.07-16.85-8.18-23.2h11.11c20.44,0,37.07-16.63,37.07-37.07,0-.59-.02-1.18-.04-1.77-.39-8.12-3.39-15.53-8.18-21.43h1.28c20.44,0,37.07-16.63,37.07-37.06ZM418.61,71.44c.25-.01.49-.02.73-.02,8.32,0,15.07,6.74,15.07,15.06v130.59c0,8.11,6.23,15.08,14.33,15.47.25.01.49.01.73.01,8.32,0,15.07-6.75,15.07-15.07V37.5c0-8.11,6.24-15.1,14.35-15.48.24-.01.48-.02.72-.02,8.32,0,15.06,6.75,15.06,15.07v179.99c0,8.11,6.24,15.09,14.34,15.48.24.01.49.01.73.01,8.32,0,15.07-6.75,15.07-15.07V67.62c0-8.11,6.23-15.09,14.33-15.47.25,0,.49-.02.73-.02,8.32,0,15.07,6.75,15.07,15.07v149.87c0,8.11,6.23,15.08,14.33,15.47.25.01.49.01.73.01,8.32,0,15.07-6.75,15.07-15.07v-110.28c0-8.32,6.75-15.07,15.07-15.07.25,0,.49.01.73.02,8.1.38,14.33,7.36,14.33,15.47l-.22,121.85c-.02,14.88-2.12,29.68-6.22,43.98l-2.46,8.57c-3.97,13.82-12.69,25.79-24.63,33.8-8.44,5.67-15.18,13.24-19.82,21.94-4.64,8.71-7.17,18.53-7.17,28.69v15.84h-92.74c-11.8-1.8-17.48-5.97-21.12-15.46-.02-.09-.04-.19-.06-.29-.03-.17-.06-.33-.09-.49l-.1-.56c-.03-.19-.06-.38-.1-.57-.02-.11-.04-.22-.07-.32-.17-.99-.34-1.8-.51-2.54v-.06c-.1-.4-.26-1.11-.53-1.99-.06-.21-.12-.4-.18-.6-.38-1.17-.84-2.31-1.38-3.38-.44-.88-.94-1.73-1.51-2.57-2.72-4.03-6.73-7.09-11.33-8.62h-.03c0-2.42-.03-4.51-.1-6.08v-.06c-1.05-66.22-16.75-228.42-19.58-257.22,2.04-5.58,7.15-9.75,13.36-10.04ZM338.38,585.71c-1.39,3.89-2.2,6.12-2.27,6.31-.05.14-.09.27-.14.41-2.05,6.39-7.73,6.76-9.44,6.73-1.7-.04-7.35-.66-9.13-7.1l-3.99-15.37-5.72-22-10.09-38.84-.6-2.31-17.72-68.19-2.92-11.25-26.34-101.39-8.66-33.33c.44-.28.9-.57,1.38-.88,2.69-1.72,5.87-3.89,9.43-6.52,2.94-2.17,6.14-4.67,9.53-7.51,8.99-7.52,19.32-17.44,29.72-30.12,21.52-26.23,46.87-68.99,56.89-131.9,1.14-7.19,2.08-14.65,2.8-22.38.33-3.49.6-7.04.83-10.64h31.98c.36,3.73.81,8.42,1.33,13.9,2.92,30.61,8.03,86.05,12.01,138.07.41,5.41.81,10.79,1.2,16.09,1.23,16.94,2.29,33.19,3.07,47.69.75,14.03,1.23,26.43,1.34,36.27.01,1.33.02,2.61.02,3.84s-.02,2.37-.07,3.62c-.32,9.07-1.79,20.18-4.09,32.61-10.43,56.3-37.91,139.58-52.77,182.57-3.22,9.34-5.85,16.77-7.58,21.62ZM71.44,261.28c-.02-.24-.02-.49-.02-.73,0-8.32,6.74-15.07,15.06-15.07h130.58c8.11,0,15.09-6.23,15.47-14.33.01-.25.02-.49.02-.73,0-8.32-6.75-15.07-15.07-15.07H37.5c-8.12,0-15.1-6.24-15.48-14.34-.02-.25-.02-.49-.02-.73,0-8.32,6.75-15.06,15.07-15.06h179.98c8.11,0,15.1-6.23,15.48-14.34.01-.24.02-.49.02-.73,0-8.32-6.75-15.07-15.07-15.07H67.62c-8.11,0-15.09-6.23-15.47-14.33-.02-.25-.02-.49-.02-.73,0-8.32,6.75-15.07,15.07-15.07h149.86c8.11,0,15.09-6.23,15.47-14.33.01-.25.02-.49.02-.73,0-8.32-6.75-15.07-15.07-15.07h-110.28c-8.32,0-15.07-6.75-15.07-15.07,0-.24,0-.49.02-.73.38-8.1,7.36-14.33,15.47-14.33l121.85.22c14.87.03,29.67,2.12,43.97,6.23l8.57,2.46c13.82,3.96,25.79,12.68,33.81,24.62,3.34,4.98,7.36,9.37,11.88,13.08-8.29,61.81-32.3,103.23-52.55,128.18-13.75,16.95-27.42,28.51-37.2,35.62-.93-.07-1.87-.1-2.81-.1h-109.94c-1.77,0-3.49.21-5.14.61h-33.16c-8.11,0-15.08-6.23-15.46-14.33ZM275.6,592.99c0,8.11-6.23,15.08-14.33,15.47-.24.01-.48.01-.73.01-8.32,0-15.07-6.74-15.07-15.06v-130.58c0-8.11-6.23-15.09-14.33-15.47-.24,0-.48-.02-.73-.02-8.32,0-15.07,6.75-15.07,15.07v179.99c0,8.11-6.23,15.1-14.34,15.48-.24.01-.49.01-.73.01-8.32,0-15.06-6.75-15.06-15.07v-179.98c0-8.11-6.23-15.09-14.33-15.48-.25,0-.49-.02-.74-.02-8.32,0-15.07,6.75-15.07,15.07v149.87c0,8.11-6.23,15.08-14.33,15.47-.24.01-.48.01-.73.01-8.32,0-15.07-6.75-15.07-15.07v-149.86c0-8.11-6.23-15.09-14.33-15.47-.24,0-.49-.02-.73-.02-8.32,0-15.07,6.75-15.07,15.07v110.28c0,8.32-6.75,15.07-15.07,15.07-.24,0-.48,0-.73-.01-8.1-.39-14.33-7.36-14.33-15.47l.22-121.85c.03-14.88,2.13-29.68,6.23-43.98l2.46-8.57c3.97-13.82,12.69-25.79,24.62-33.8,8.44-5.67,15.18-13.25,19.82-21.95,4.64-8.7,7.17-18.53,7.17-28.69v-15.83h92.75c.08.01.16.02.24.04l56.81,218.69v38.35c0,1.76.21,3.46.6,5.1v33.2ZM462.84,494.68c-8.12,0-15.1,6.23-15.48,14.33-.02.25-.02.5-.02.74,0,8.32,6.75,15.07,15.07,15.07h149.86c8.11,0,15.09,6.23,15.47,14.33.01.24.02.49.02.73,0,8.32-6.75,15.07-15.07,15.07h-149.86c-8.11,0-15.09,6.23-15.47,14.33-.02.24-.02.49-.02.73,0,8.32,6.75,15.07,15.07,15.07h110.28c8.32,0,15.07,6.75,15.07,15.07,0,.24-.01.48-.02.73-.38,8.1-7.36,14.33-15.47,14.33l-121.85-.22c-14.87-.03-29.67-2.12-43.97-6.23l-8.58-2.46c-13.81-3.97-25.79-12.69-33.8-24.62-.2-.29-.39-.58-.6-.87,13.14-37.43,41.91-122.48,54.86-185.27,7.45,6.07,16.66,9.35,26.42,9.35h109.93c1.75,0,3.46-.2,5.09-.6h33.22c8.1,0,15.08,6.23,15.46,14.33.01.24.02.49.02.73,0,8.32-6.74,15.07-15.06,15.07h-130.58c-8.11,0-15.09,6.23-15.47,14.33-.02.24-.02.49-.02.73,0,8.32,6.75,15.07,15.07,15.07h179.98c8.12,0,15.1,6.24,15.48,14.34.01.25.02.49.02.73,0,8.32-6.75,15.06-15.07,15.06h-179.98Z"/>
  </g>
</svg>