<?xml version="1.0" encoding="UTF-8"?>
<svg id="Layer_2" data-name="Layer 2" xmlns="http://www.w3.org/2000/svg" viewBox="0 0 679.89 679.89">
  <defs>
    <style>
      .cls-1 {
        fill: #010101;
      }

      .cls-2, .cls-3 {
        fill: #fefefe;
      }

      .cls-3 {
        stroke: #010101;
        stroke-linecap: round;
        stroke-linejoin: round;
        stroke-width: 22px;
      }
    </style>
  </defs>
  <g id="Layer_1-2" data-name="Layer 1">
    <g>
      <g>
        <g>
          <path class="cls-2" d="M444.75,393.89c-8.39,0-16.25-3.3-22.13-9.29-5.87-5.98-9.02-13.9-8.87-22.28.34-18.47.12-23.22.01-24.4-.02-.17-.09-.43-.21-.78l-5.93-7.23c-16.66-20.3-31.05-37.85-48.51-57.98-1.3-1.18-4.32-4.16-4.43-9.78,0-.07,0-.14,0-.21,0-1.48.3-2.94.87-4.29.83-1.98,2.23-3.7,4.02-4.92.03-.02.07-.04.1-.07.42-.28.83-.52,1.27-.74.04-.02.09-.04.13-.07.55-.27,1.11-.49,1.71-.68.15-.05.29-.09.45-.14.35-.1.74-.2,1.17-.3l.11-.03c.59-.14,1.31-.28,2.1-.42.12-.02.62-.12.75-.14l1.19-.21c.22-.05.45-.09.66-.12.21-.04.41-.08.6-.12.04-.02.09-.03.13-.05,13.97-5.11,20.98-14.37,23.34-30.9V86.9c0-14.18,10.9-25.8,24.81-26.45.42-.02.84-.03,1.25-.03,14.38,0,26.07,11.69,26.07,26.06v130.58c0,2.33,1.76,4.38,3.85,4.48h.21c2.24,0,4.07-1.82,4.07-4.07V37.5c0-14.19,10.91-25.81,24.83-26.47.42-.02.83-.03,1.24-.03,14.37,0,26.06,11.7,26.06,26.07v179.98c0,2.38,1.73,4.39,3.86,4.49.07,0,.14,0,.21,0,2.24,0,4.07-1.83,4.07-4.07V67.62c0-14.18,10.9-25.8,24.81-26.46.42-.02.84-.03,1.25-.03,14.38,0,26.07,11.7,26.07,26.07v149.86c0,2.33,1.76,4.38,3.85,4.48h.21c2.24,0,4.07-1.82,4.07-4.07v-110.28c0-14.38,11.7-26.07,26.07-26.07.41,0,.83,0,1.25.03,13.91.66,24.81,12.28,24.81,26.46l-.22,121.87c-.03,15.9-2.27,31.71-6.65,46.99l-2.46,8.57c-4.67,16.29-15,30.46-29.06,39.9-13.85,9.3-22.12,24.82-22.12,41.5v16.44c0,6.08-4.92,11-11,11h-109.93Z"/>
          <path class="cls-1" d="M479.61,22c8.32,0,15.06,6.75,15.06,15.07v179.98c0,8.11,6.23,15.09,14.33,15.48.25.01.49.02.74.02,8.32,0,15.07-6.75,15.07-15.07V67.62c0-8.11,6.23-15.09,14.33-15.47.24-.01.49-.02.73-.02,8.32,0,15.07,6.75,15.07,15.07v149.86c0,8.11,6.23,15.09,14.33,15.47.24.01.49.02.73.02,8.32,0,15.07-6.75,15.07-15.07v-110.28c0-8.32,6.75-15.07,15.07-15.07.24,0,.48,0,.73.02,8.1.38,14.33,7.36,14.33,15.47l-.22,121.85c-.03,14.88-2.12,29.68-6.23,43.97l-2.46,8.57c-3.97,13.82-12.69,25.79-24.62,33.8h0c-16.87,11.33-26.99,30.31-26.99,50.63v16.44h-109.93c-11.19,0-20.2-9.18-20-20.36.2-10.56.31-21.99-.03-25.63-.17-1.92-.84-3.67-1.58-5.42-19.57-23.83-35.85-43.86-55.96-67.04-.8-.92-1.47-.96-1.5-2.5,0-.02.01-.04.02-.05,0-.03.03-.04.06-.06s.07-.05.13-.08.14-.06.24-.09c.06-.02.12-.04.19-.06.19-.06.43-.11.69-.17.47-.11,1.05-.22,1.68-.33.18-.04.37-.07.56-.11.46-.08.94-.17,1.4-.25.18-.04.36-.07.53-.1.53-.1,1.02-.2,1.44-.3.17-.04.33-.09.47-.12.09-.03.18-.06.25-.08.1-.03.18-.06.25-.1.05-.02.09-.04.13-.06,20.74-7.58,28.2-22.72,30.56-40.48V86.9c0-8.11,6.23-15.08,14.33-15.47.24-.01.49-.02.73-.02,8.32,0,15.07,6.74,15.07,15.06v130.58c0,8.11,6.23,15.09,14.33,15.47.24.01.49.02.73.02,8.32,0,15.07-6.75,15.07-15.07V37.5c0-8.12,6.24-15.1,14.34-15.48.24-.01.49-.02.73-.02M479.61,0c-.58,0-1.17.01-1.76.04-19.8.93-35.31,17.38-35.31,37.46v20.1c-6.36-5.11-14.43-8.17-23.2-8.17-.58,0-1.18.01-1.76.04-19.79.93-35.3,17.38-35.3,37.44v131.04c-1.8,11.8-5.97,17.48-15.45,21.12-.09.02-.19.04-.3.06-.16.03-.32.06-.48.09l-.56.1c-.19.03-.38.07-.57.11-.11.02-.22.04-.33.06-.98.18-1.8.34-2.54.51h-.05c-.4.1-1.11.26-1.99.53-.21.06-.41.12-.6.19-1.17.37-2.31.84-3.38,1.37-.88.44-1.73.94-2.58,1.51-4.03,2.72-7.08,6.73-8.62,11.34h0c-.75,2.25-1.15,4.62-1.15,7.01,0,.14,0,.29,0,.43.09,4.7,1.49,11.41,7.48,17.19,17.18,19.83,31.45,37.22,47.95,57.33,1.25,1.53,2.51,3.06,3.79,4.62.05,2.91.07,8.87-.15,20.62-.21,11.36,4.06,22.08,12.02,30.19,7.96,8.11,18.61,12.58,29.98,12.58h109.93c12.15,0,22-9.85,22-22v-16.44c0-13.01,6.45-25.11,17.25-32.37,16.22-10.89,28.11-27.22,33.5-46l2.46-8.57c4.67-16.26,7.05-33.09,7.08-50.01l.22-121.85c0-20.1-15.5-36.55-35.29-37.48-.59-.03-1.18-.04-1.77-.04-8.77,0-16.84,3.06-23.2,8.18v-11.11c0-20.44-16.63-37.07-37.07-37.07-.59,0-1.18.01-1.77.04-8.13.38-15.53,3.38-21.43,8.17v-1.28c0-20.44-16.63-37.07-37.06-37.07h0Z"/>
        </g>
        <g>
          <path class="cls-2" d="M286,444.75c0-8.39,3.3-16.25,9.29-22.13,5.98-5.87,13.9-9.02,22.28-8.87,18.47.34,23.22.12,24.4.01.17-.02.43-.09.78-.21l7.23-5.93c20.3-16.66,37.85-31.05,57.98-48.51,1.18-1.3,4.16-4.32,9.78-4.43.07,0,.14,0,.21,0,1.48,0,2.94.3,4.29.87,1.98.83,3.7,2.23,4.92,4.02.02.03.04.07.07.1.28.42.52.83.74,1.27.02.04.04.09.07.13.27.55.49,1.11.68,1.71.05.15.09.29.14.45.1.35.2.74.3,1.17l.03.11c.14.59.28,1.31.42,2.1.02.12.12.62.14.75l.21,1.19c.05.22.09.45.12.66.04.21.08.41.12.6.02.04.03.09.05.13,5.11,13.97,14.37,20.98,30.9,23.34h131.84c14.18,0,25.8,10.9,26.45,24.81.02.42.03.84.03,1.25,0,14.38-11.69,26.07-26.06,26.07h-130.58c-2.33,0-4.38,1.76-4.48,3.85v.21c0,2.24,1.82,4.07,4.07,4.07h179.98c14.19,0,25.81,10.91,26.47,24.83.02.42.03.83.03,1.24,0,14.37-11.7,26.06-26.07,26.06h-179.98c-2.38,0-4.39,1.73-4.49,3.86,0,.07,0,.14,0,.21,0,2.24,1.83,4.07,4.07,4.07h149.86c14.18,0,25.8,10.9,26.46,24.81.02.42.03.84.03,1.25,0,14.38-11.7,26.07-26.07,26.07h-149.86c-2.33,0-4.38,1.76-4.48,3.85v.21c0,2.24,1.82,4.07,4.07,4.07h110.28c14.38,0,26.07,11.7,26.07,26.07,0,.41,0,.83-.03,1.25-.66,13.91-12.28,24.81-26.46,24.81l-121.87-.22c-15.9-.03-31.71-2.27-46.99-6.65l-8.57-2.46c-16.29-4.67-30.46-15-39.9-29.06-9.3-13.85-24.82-22.12-41.5-22.12h-16.44c-6.08,0-11-4.92-11-11v-109.93Z"/>
          <path class="cls-1" d="M657.89,479.61c0,8.32-6.75,15.06-15.07,15.06h-179.98c-8.11,0-15.09,6.23-15.48,14.33-.01.25-.02.49-.02.74,0,8.32,6.75,15.07,15.07,15.07h149.86c8.11,0,15.09,6.23,15.47,14.33.01.24.02.49.02.73,0,8.32-6.75,15.07-15.07,15.07h-149.86c-8.11,0-15.09,6.23-15.47,14.33-.01.24-.02.49-.02.73,0,8.32,6.75,15.07,15.07,15.07h110.28c8.32,0,15.07,6.75,15.07,15.07,0,.24,0,.48-.02.73-.38,8.1-7.36,14.33-15.47,14.33l-121.85-.22c-14.88-.03-29.68-2.12-43.97-6.23l-8.57-2.46c-13.82-3.97-25.79-12.69-33.8-24.62h0c-11.33-16.87-30.31-26.99-50.63-26.99h-16.44v-109.93c0-11.19,9.18-20.2,20.36-20,10.56.2,21.99.31,25.63-.03,1.92-.17,3.67-.84,5.42-1.58,23.83-19.57,43.86-35.85,67.04-55.96.92-.8.96-1.47,2.5-1.5.02,0,.04.01.05.02.03,0,.04.03.06.06s.05.07.08.13.06.14.09.24c.02.06.04.12.06.19.06.19.11.43.17.69.11.47.22,1.05.33,1.68.04.18.07.37.11.56.08.46.17.94.25,1.4.04.18.07.36.1.53.1.53.2,1.02.3,1.44.04.17.09.33.12.47.03.09.06.18.08.25.03.1.06.18.1.25.02.05.04.09.06.13,7.58,20.74,22.72,28.2,40.48,30.56h132.6c8.11,0,15.08,6.23,15.47,14.33.01.24.02.49.02.73,0,8.32-6.74,15.07-15.06,15.07h-130.58c-8.11,0-15.09,6.23-15.47,14.33-.01.24-.02.49-.02.73,0,8.32,6.75,15.07,15.07,15.07h179.98c8.12,0,15.1,6.24,15.48,14.34.01.24.02.49.02.73M679.89,479.61c0-.58-.01-1.17-.04-1.76-.93-19.8-17.38-35.31-37.46-35.31h-20.1c5.11-6.36,8.17-14.43,8.17-23.2,0-.58-.01-1.18-.04-1.76-.93-19.79-17.38-35.3-37.44-35.3h-131.04c-11.8-1.8-17.48-5.97-21.12-15.45-.02-.09-.04-.19-.06-.3-.03-.16-.06-.32-.09-.48l-.1-.56c-.03-.19-.07-.38-.11-.57-.02-.11-.04-.22-.06-.33-.18-.98-.34-1.8-.51-2.54v-.05c-.1-.4-.26-1.11-.53-1.99-.06-.21-.12-.41-.19-.6-.37-1.17-.84-2.31-1.37-3.38-.44-.88-.94-1.73-1.51-2.58-2.72-4.03-6.73-7.08-11.34-8.62h0c-2.25-.75-4.62-1.15-7.01-1.15-.14,0-.29,0-.43,0-4.7.09-11.41,1.49-17.19,7.48-19.83,17.18-37.22,31.45-57.33,47.95-1.53,1.25-3.06,2.51-4.62,3.79-2.91.05-8.87.07-20.62-.15-11.36-.21-22.08,4.06-30.19,12.02-8.11,7.96-12.58,18.61-12.58,29.98v109.93c0,12.15,9.85,22,22,22h16.44c13.01,0,25.11,6.45,32.37,17.25,10.89,16.22,27.22,28.11,46,33.5l8.57,2.46c16.26,4.67,33.09,7.05,50.01,7.08l121.85.22c20.1,0,36.55-15.5,37.48-35.29.03-.59.04-1.18.04-1.77,0-8.77-3.06-16.84-8.18-23.2h11.11c20.44,0,37.07-16.63,37.07-37.07,0-.59-.01-1.18-.04-1.77-.38-8.13-3.38-15.53-8.17-21.43h1.28c20.44,0,37.07-16.63,37.07-37.06h0Z"/>
        </g>
        <g>
          <path class="cls-2" d="M235.14,286c8.39,0,16.25,3.3,22.13,9.29,5.87,5.98,9.02,13.9,8.87,22.28-.34,18.47-.12,23.22-.01,24.4.02.17.09.43.21.78l5.93,7.23c16.66,20.3,31.05,37.85,48.51,57.98,1.3,1.18,4.32,4.16,4.43,9.78,0,.07,0,.14,0,.21,0,1.48-.3,2.94-.87,4.29-.83,1.98-2.23,3.7-4.02,4.92-.03.02-.07.04-.1.07-.42.28-.83.52-1.27.74-.04.02-.09.04-.13.07-.55.27-1.11.49-1.71.68-.15.05-.29.09-.45.14-.35.1-.74.2-1.17.3l-.11.03c-.59.14-1.31.28-2.1.42-.12.02-.62.12-.75.14l-1.19.21c-.22.05-.45.09-.66.12-.21.04-.41.08-.6.12-.04.02-.09.03-.13.05-13.97,5.11-20.98,14.37-23.34,30.9v131.84c0,14.18-10.9,25.8-24.81,26.45-.42.02-.84.03-1.25.03-14.38,0-26.07-11.69-26.07-26.06v-130.58c0-2.33-1.76-4.38-3.85-4.48h-.21c-2.24,0-4.07,1.82-4.07,4.07v179.98c0,14.19-10.91,25.81-24.83,26.47-.42.02-.83.03-1.24.03-14.37,0-26.06-11.7-26.06-26.07v-179.98c0-2.38-1.73-4.39-3.86-4.49-.07,0-.14,0-.21,0-2.24,0-4.07,1.83-4.07,4.07v149.86c0,14.18-10.9,25.8-24.81,26.46-.42.02-.84.03-1.25.03-14.38,0-26.07-11.7-26.07-26.07v-149.86c0-2.33-1.76-4.38-3.85-4.48h-.21c-2.24,0-4.07,1.82-4.07,4.07v110.28c0,14.38-11.7,26.07-26.07,26.07-.41,0-.83,0-1.25-.03-13.91-.66-24.81-12.28-24.81-26.46l.22-121.87c.03-15.9,2.27-31.71,6.65-46.99l2.46-8.57c4.67-16.29,15-30.46,29.06-39.9,13.85-9.3,22.12-24.82,22.12-41.5v-16.44c0-6.08,4.92-11,11-11h109.93Z"/>
          <path class="cls-1" d="M200.28,657.89c-8.32,0-15.06-6.75-15.06-15.07v-179.98c0-8.11-6.23-15.09-14.33-15.48-.25-.01-.49-.02-.74-.02-8.32,0-15.07,6.75-15.07,15.07v149.86c0,8.11-6.23,15.09-14.33,15.47-.24.01-.49.02-.73.02-8.32,0-15.07-6.75-15.07-15.07v-149.86c0-8.11-6.23-15.09-14.33-15.47-.24-.01-.49-.02-.73-.02-8.32,0-15.07,6.75-15.07,15.07v110.28c0,8.32-6.75,15.07-15.07,15.07-.24,0-.48,0-.73-.02-8.1-.38-14.33-7.36-14.33-15.47l.22-121.85c.03-14.88,2.12-29.68,6.23-43.97l2.46-8.57c3.97-13.82,12.69-25.79,24.62-33.8h0c16.87-11.33,26.99-30.31,26.99-50.63v-16.44h109.93c11.19,0,20.2,9.18,20,20.36-.2,10.56-.31,21.99.03,25.63.17,1.92.84,3.67,1.58,5.42,19.57,23.83,35.85,43.86,55.96,67.04.8.92,1.47.96,1.5,2.5,0,.02-.01.04-.02.05,0,.03-.03.04-.06.06s-.07.05-.13.08-.14.06-.24.09c-.06.02-.12.04-.19.06-.19.06-.43.11-.69.17-.47.11-1.05.22-1.68.33-.18.04-.37.07-.56.11-.46.08-.94.17-1.4.25-.18.04-.36.07-.53.1-.53.1-1.02.2-1.44.3-.17.04-.33.09-.47.12-.09.03-.18.06-.25.08-.1.03-.18.06-.25.1-.05.02-.09.04-.13.06-20.74,7.58-28.2,22.72-30.56,40.48v132.6c0,8.11-6.23,15.08-14.33,15.47-.24.01-.49.02-.73.02-8.32,0-15.07-6.74-15.07-15.06v-130.58c0-8.11-6.23-15.09-14.33-15.47-.24-.01-.49-.02-.73-.02-8.32,0-15.07,6.75-15.07,15.07v179.98c0,8.12-6.24,15.1-14.34,15.48-.24.01-.49.02-.73.02M200.28,679.89c.58,0,1.17-.01,1.76-.04,19.8-.93,35.31-17.38,35.31-37.46v-20.1c6.36,5.11,14.43,8.17,23.2,8.17.58,0,1.18-.01,1.76-.04,19.79-.93,35.3-17.38,35.3-37.44v-131.04c1.8-11.8,5.97-17.48,15.45-21.12.09-.02.19-.04.3-.06.16-.03.32-.06.48-.09l.56-.1c.19-.03.38-.07.57-.11.11-.02.22-.04.33-.06.98-.18,1.8-.34,2.54-.51h.05c.4-.1,1.11-.26,1.99-.53.21-.06.41-.12.6-.19,1.17-.37,2.31-.84,3.38-1.37.88-.44,1.73-.94,2.58-1.51,4.03-2.72,7.08-6.73,8.62-11.34h0c.75-2.25,1.15-4.62,1.15-7.01,0-.14,0-.29,0-.43-.09-4.7-1.49-11.41-7.48-17.19-17.18-19.83-31.45-37.22-47.95-57.33-1.25-1.53-2.51-3.06-3.79-4.62-.05-2.91-.07-8.87.15-20.62.21-11.36-4.06-22.08-12.02-30.19-7.96-8.11-18.61-12.58-29.98-12.58h-109.93c-12.15,0-22,9.85-22,22v16.44c0,13.01-6.45,25.11-17.25,32.37-16.22,10.89-28.11,27.22-33.5,46l-2.46,8.57c-4.67,16.26-7.05,33.09-7.08,50.01l-.22,121.85c0,20.1,15.5,36.55,35.29,37.48.59.03,1.18.04,1.77.04,8.77,0,16.84-3.06,23.2-8.18v11.11c0,20.44,16.63,37.07,37.07,37.07.59,0,1.18-.01,1.77-.04,8.13-.38,15.53-3.38,21.43-8.17v1.28c0,20.44,16.63,37.07,37.06,37.07h0Z"/>
        </g>
        <g>
          <path class="cls-2" d="M393.89,235.14c0,8.39-3.3,16.25-9.29,22.13-5.98,5.87-13.9,9.02-22.28,8.87-18.47-.34-23.22-.12-24.4-.01-.17.02-.43.09-.78.21l-7.23,5.93c-20.3,16.66-37.85,31.05-57.98,48.51-1.18,1.3-4.16,4.32-9.78,4.43-.07,0-.14,0-.21,0-1.48,0-2.94-.3-4.29-.87-1.98-.83-3.7-2.23-4.92-4.02-.02-.03-.04-.07-.07-.1-.28-.42-.52-.83-.74-1.27-.02-.04-.04-.09-.07-.13-.27-.55-.49-1.11-.68-1.71-.05-.15-.09-.29-.14-.45-.1-.35-.2-.74-.3-1.17l-.03-.11c-.14-.59-.28-1.31-.42-2.1-.02-.12-.12-.62-.14-.75l-.21-1.19c-.05-.22-.09-.45-.12-.66-.04-.21-.08-.41-.12-.6-.02-.04-.03-.09-.05-.13-5.11-13.97-14.37-20.98-30.9-23.34H86.9c-14.18,0-25.8-10.9-26.45-24.81-.02-.42-.03-.84-.03-1.25,0-14.38,11.69-26.07,26.06-26.07h130.58c2.33,0,4.38-1.76,4.48-3.85v-.21c0-2.24-1.82-4.07-4.07-4.07H37.5c-14.19,0-25.81-10.91-26.47-24.83-.02-.42-.03-.83-.03-1.24,0-14.37,11.7-26.06,26.07-26.06h179.98c2.38,0,4.39-1.73,4.49-3.86,0-.07,0-.14,0-.21,0-2.24-1.83-4.07-4.07-4.07H67.62c-14.18,0-25.8-10.9-26.46-24.81-.02-.42-.03-.84-.03-1.25,0-14.38,11.7-26.07,26.07-26.07h149.86c2.33,0,4.38-1.76,4.48-3.85v-.21c0-2.24-1.82-4.07-4.07-4.07h-110.28c-14.38,0-26.07-11.7-26.07-26.07,0-.41,0-.83.03-1.25.66-13.91,12.28-24.81,26.46-24.81l121.87.22c15.9.03,31.71,2.27,46.99,6.65l8.57,2.46c16.29,4.67,30.46,15,39.9,29.06,9.3,13.85,24.82,22.12,41.5,22.12h16.44c6.08,0,11,4.92,11,11v109.93Z"/>
          <path class="cls-1" d="M22,200.28c0-8.32,6.75-15.06,15.07-15.06h179.98c8.11,0,15.09-6.23,15.48-14.33.01-.25.02-.49.02-.74,0-8.32-6.75-15.07-15.07-15.07H67.62c-8.11,0-15.09-6.23-15.47-14.33-.01-.24-.02-.49-.02-.73,0-8.32,6.75-15.07,15.07-15.07h149.86c8.11,0,15.09-6.23,15.47-14.33.01-.24.02-.49.02-.73,0-8.32-6.75-15.07-15.07-15.07h-110.28c-8.32,0-15.07-6.75-15.07-15.07,0-.24,0-.48.02-.73.38-8.1,7.36-14.33,15.47-14.33l121.85.22c14.88.03,29.68,2.12,43.97,6.23l8.57,2.46c13.82,3.97,25.79,12.69,33.8,24.62h0c11.33,16.87,30.31,26.99,50.63,26.99h16.44v109.93c0,11.19-9.18,20.2-20.36,20-10.56-.2-21.99-.31-25.63.03-1.92.17-3.67.84-5.42,1.58-23.83,19.57-43.86,35.85-67.04,55.96-.92.8-.96,1.47-2.5,1.5-.02,0-.04-.01-.05-.02-.03,0-.04-.03-.06-.06s-.05-.07-.08-.13-.06-.14-.09-.24c-.02-.06-.04-.12-.06-.19-.06-.19-.11-.43-.17-.69-.11-.47-.22-1.05-.33-1.68-.04-.18-.07-.37-.11-.56-.08-.46-.17-.94-.25-1.4-.04-.18-.07-.36-.1-.53-.1-.53-.2-1.02-.3-1.44-.04-.17-.09-.33-.12-.47-.03-.09-.06-.18-.08-.25-.03-.1-.06-.18-.1-.25-.02-.05-.04-.09-.06-.13-7.58-20.74-22.72-28.2-40.48-30.56H86.9c-8.11,0-15.08-6.23-15.47-14.33-.01-.24-.02-.49-.02-.73,0-8.32,6.74-15.07,15.06-15.07h130.58c8.11,0,15.09-6.23,15.47-14.33.01-.24.02-.49.02-.73,0-8.32-6.75-15.07-15.07-15.07H37.5c-8.12,0-15.1-6.24-15.48-14.34-.01-.24-.02-.49-.02-.73M0,200.28c0,.58.01,1.17.04,1.76.93,19.8,17.38,35.31,37.46,35.31h20.1c-5.11,6.36-8.17,14.43-8.17,23.2,0,.58.01,1.18.04,1.76.93,19.79,17.38,35.3,37.44,35.3h131.04c11.8,1.8,17.48,5.97,21.12,15.45.02.09.04.19.06.3.03.16.06.32.09.48l.1.56c.03.19.07.38.11.57.02.11.04.22.06.33.18.98.34,1.8.51,2.54v.05c.1.4.26,1.11.53,1.99.06.21.12.41.19.6.37,1.17.84,2.31,1.37,3.38.44.88.94,1.73,1.51,2.58,2.72,4.03,6.73,7.08,11.34,8.62h0c2.25.75,4.62,1.15,7.01,1.15.14,0,.29,0,.43,0,4.7-.09,11.41-1.49,17.19-7.48,19.83-17.18,37.22-31.45,57.33-47.95,1.53-1.25,3.06-2.51,4.62-3.79,2.91-.05,8.87-.07,20.62.15,11.36.21,22.08-4.06,30.19-12.02,8.11-7.96,12.58-18.61,12.58-29.98v-109.93c0-12.15-9.85-22-22-22h-16.44c-13.01,0-25.11-6.45-32.37-17.25-10.89-16.22-27.22-28.11-46-33.5l-8.57-2.46c-16.26-4.67-33.09-7.05-50.01-7.08l-121.85-.22c-20.1,0-36.55,15.5-37.48,35.29-.03.59-.04,1.18-.04,1.77,0,8.77,3.06,16.84,8.18,23.2h-11.11c-20.44,0-37.07,16.63-37.07,37.07,0,.59.01,1.18.04,1.77.38,8.13,3.38,15.53,8.17,21.43h-1.28c-20.44,0-37.07,16.63-37.07,37.06h0Z"/>
        </g>
      </g>
      <path class="cls-3" d="M393.89,78.42s20,200.89,20,266.87-67.45,250.5-67.45,250.5c-6.3,19.6-34.25,18.98-39.67-.88l-78.16-300.87s107.18-52.58,112.85-215.61h52.43Z"/>
    </g>
  </g>
</svg>